<?xml version="1.0" encoding="utf-8"?>
<!-- Generator: Adobe Illustrator 27.9.0, SVG Export Plug-In . SVG Version: 6.00 Build 0)  -->
<svg version="1.1" id="Layer_1" xmlns="http://www.w3.org/2000/svg" xmlns:xlink="http://www.w3.org/1999/xlink" x="0px" y="0px"
	 viewBox="0 0 27 27" style="enable-background:new 0 0 27 27;" xml:space="preserve">
<style type="text/css">
	.st0{fill:#EEEFEF;}
</style>
<circle class="st0" cx="13.5" cy="13.5" r="13.5"/>
<path d="M11.4,20.4C11.4,20.4,11.4,20.4,11.4,20.4c0,1.2,1,2.1,2.1,2.1s2.1-1,2.1-2.1c0,0,0,0,0,0H11.4L11.4,20.4z M20.3,17.7
	l-1.9-2.8v-3.5c0-2.4-1.7-4.4-3.9-4.8V5.5c0-0.5-0.4-1-1-1s-1,0.4-1,1v1.1C10.3,7,8.6,9,8.6,11.4v3.5l-1.9,2.8
	c-0.3,0.4-0.2,1,0.3,1.3c0.2,0.1,0.4,0.2,0.5,0.2h12c0.5,0,1-0.4,1-1C20.5,18.1,20.4,17.9,20.3,17.7z"/>
</svg>
