<svg width="20" height="20" xmlns="http://www.w3.org/2000/svg"><path d="M10 5c-.858 0-1.688.136-2.464.402a6.28 6.28 0 0 0-1.931 1.054C4.57 7.296 4 8.378 4 9.5c0 .63.175 1.24.52 1.815.355.593.89 1.134 1.546 1.567.474.312.793.811.878 1.373.027.188.045.377.052.564.116-.097.23-.2.342-.312a2 2 0 0 1 1.667-.57c.327.042.662.064.995.064.858 0 1.687-.136 2.463-.402a6.28 6.28 0 0 0 1.932-1.055c1.035-.84 1.604-1.921 1.604-3.044 0-1.122-.57-2.203-1.604-3.043a6.292 6.292 0 0 0-1.931-1.054A7.559 7.559 0 0 0 10 5V5Zm0-2c4.418 0 8 2.91 8 6.5S14.418 16 10 16a9.83 9.83 0 0 1-1.247-.079C7.034 17.639 4.983 17.947 3 17.993v-.42c1.071-.525 2-1.481 2-2.573 0-.152-.012-.302-.034-.448C3.156 13.36 2 11.54 2 9.5 2 5.91 5.582 3 10 3Z" fill="#000" fill-rule="nonzero"/></svg>